# xmcd
#
# Track frame offsets:
#	150
#	11826
#	24098
#	34334
#	42833
#	52922
#	61381
#	75083
#	89912
#	104298
#	117665
#	130301
#	146795
#	158907
#	167838
#
# Disc length: 2473 seconds
#
# Revision: 1
# Processed by: cddbd v1.5.2PL0 Copyright (c) Steve Scherf et al.
# Submitted via: audiograbber 1.81.03
#
DISCID=c709a70f
DTITLE=King Voodoo  - Voodooville  
DYEAR=2002
DGENRE=Rock and Roll
TTITLE0=Call Of The Wild
TTITLE1=Up In Flames
TTITLE2=Rockabilly Missionary
TTITLE3=Nothing
TTITLE4=Hanging Around
TTITLE5=Rarin' To Go
TTITLE6=Born In The Backwoods
TTITLE7=Bring Your Sister
TTITLE8=Guitar Man
TTITLE9=Old Hack Shack
TTITLE10=Hula Baby
TTITLE11=Messed Up My Hair
TTITLE12=Chicken Song, The
TTITLE13=Those Damn Dames
TTITLE14=Let Me Entertain You
EXTD=
EXTT0=
EXTT1=
EXTT2=
EXTT3=
EXTT4=
EXTT5=
EXTT6=
EXTT7=
EXTT8=
EXTT9=
EXTT10=
EXTT11=
EXTT12=
EXTT13=
EXTT14=
PLAYORDER=
